<?xml version="1.0" encoding="UTF-8" standalone="no"?>
<!DOCTYPE svg PUBLIC "-//W3C//DTD SVG 1.1//EN" "http://www.w3.org/Graphics/SVG/1.1/DTD/svg11.dtd">
<svg width="100%" height="100%" viewBox="0 0 805 208" version="1.1" xmlns="http://www.w3.org/2000/svg" xmlns:xlink="http://www.w3.org/1999/xlink" xml:space="preserve" xmlns:serif="http://www.serif.com/" style="fill-rule:evenodd;clip-rule:evenodd;stroke-linejoin:round;stroke-miterlimit:2;">
    <g transform="matrix(0.993827,0,0,1.625,0,0)">
        <rect x="0" y="0" width="810" height="128" style="fill:white;"/>
    </g>
    <g transform="matrix(1,0,0,1,40,40)">
        <g transform="matrix(8,0,0,8,0,-4)">
            <path d="M4.318,2.687C5.234,2.271 6.536,2 8,2C9.464,2 10.766,2.27 11.682,2.687C12.644,3.125 13,3.627 13,4C13,4.374 12.644,4.875 11.682,5.313C10.766,5.729 9.464,6 8,6C6.536,6 5.234,5.73 4.318,5.313C3.356,4.875 3,4.373 3,4C3,3.626 3.356,3.125 4.318,2.687ZM13,5.698L13,7C13,7.374 12.644,7.875 11.682,8.313C10.766,8.729 9.464,9 8,9C6.536,9 5.234,8.73 4.318,8.313C3.356,7.875 3,7.373 3,7L3,5.698C3.271,5.9 3.58,6.076 3.904,6.223C4.978,6.711 6.427,7 8,7C9.573,7 11.022,6.711 12.096,6.223C12.415,6.081 12.718,5.905 13,5.698ZM14,4C14,2.993 13.125,2.245 12.096,1.777C11.022,1.289 9.573,1 8,1C6.427,1 4.978,1.289 3.904,1.777C2.875,2.245 2,2.993 2,4L2,13C2,14.007 2.875,14.755 3.904,15.223C4.978,15.71 6.427,16 8,16C9.573,16 11.022,15.711 12.096,15.223C13.125,14.755 14,14.007 14,13L14,4ZM13,8.698L13,10C13,10.374 12.644,10.875 11.682,11.313C10.766,11.729 9.464,12 8,12C6.536,12 5.234,11.73 4.318,11.313C3.356,10.875 3,10.373 3,10L3,8.698C3.271,8.9 3.58,9.076 3.904,9.223C4.978,9.71 6.427,10 8,10C9.573,10 11.022,9.711 12.096,9.223C12.415,9.081 12.718,8.905 13,8.698ZM13,11.698L13,13C13,13.374 12.644,13.875 11.682,14.313C10.766,14.729 9.464,15 8,15C6.536,15 5.234,14.73 4.318,14.313C3.356,13.875 3,13.373 3,13L3,11.698C3.271,11.9 3.58,12.076 3.904,12.223C4.978,12.71 6.427,13 8,13C9.573,13 11.022,12.711 12.096,12.223C12.42,12.076 12.729,11.9 13,11.698Z" style="fill:rgb(153,50,204);fill-rule:nonzero;"/>
        </g>
        <g transform="matrix(8,0,0,8,120,-3.45026)">
            <path d="M16,8C16,11.866 12.418,15 8,15C7.208,15.001 6.419,14.898 5.653,14.694C5.069,14.99 3.728,15.558 1.472,15.928C1.272,15.96 1.12,15.752 1.199,15.566C1.553,14.73 1.873,13.616 1.969,12.6C0.744,11.37 0,9.76 0,8C0,4.134 3.582,1 8,1C12.418,1 16,4.134 16,8ZM5,8C5,7.451 4.549,7 4,7C3.451,7 3,7.451 3,8C3,8.549 3.451,9 4,9C4.549,9 5,8.549 5,8ZM9,8C9,7.451 8.549,7 8,7C7.451,7 7,7.451 7,8C7,8.549 7.451,9 8,9C8.549,9 9,8.549 9,8ZM12,9C12.549,9 13,8.549 13,8C13,7.451 12.549,7 12,7C11.451,7 11,7.451 11,8C11,8.549 11.451,9 12,9Z" style="fill:rgb(100,149,237);fill-rule:nonzero;"/>
        </g>
    </g>
    <g transform="matrix(1,0,0,1,62,40)">
        <text x="272px" y="98.383px" style="font-family:'ArialMT', 'Arial', sans-serif;font-size:96px;fill:rgb(38,38,38);">DataChat</text>
    </g>
</svg>
